<mxfile host="app.diagrams.net" modified="2024-07-29T08:29:33.961Z" agent="Mozilla/5.0 (Windows NT 10.0; Win64; x64) AppleWebKit/537.36 (KHTML, like Gecko) Chrome/126.0.0.0 Safari/537.36 Edg/126.0.0.0" etag="Xtn7RGchGio7E0CLSULh" version="24.5.4" type="github">
  <diagram id="C5RBs43oDa-KdzZeNtuy" name="Page-1">
    <mxGraphModel dx="906" dy="631" grid="1" gridSize="10" guides="1" tooltips="1" connect="1" arrows="1" fold="1" page="1" pageScale="1" pageWidth="827" pageHeight="1169" math="0" shadow="0">
      <root>
        <mxCell id="WIyWlLk6GJQsqaUBKTNV-0" />
        <mxCell id="WIyWlLk6GJQsqaUBKTNV-1" parent="WIyWlLk6GJQsqaUBKTNV-0" />
        <mxCell id="T_ZoQTTc3kzyoSvQndt8-2" value="" style="edgeStyle=orthogonalEdgeStyle;orthogonalLoop=1;jettySize=auto;html=1;" parent="WIyWlLk6GJQsqaUBKTNV-1" source="T_ZoQTTc3kzyoSvQndt8-0" edge="1">
          <mxGeometry relative="1" as="geometry">
            <mxPoint x="170" y="246" as="targetPoint" />
          </mxGeometry>
        </mxCell>
        <mxCell id="T_ZoQTTc3kzyoSvQndt8-0" value="Input&lt;div&gt;.fast5/.fastq&lt;/div&gt;" style="rounded=1;whiteSpace=wrap;html=1;fillColor=none;" parent="WIyWlLk6GJQsqaUBKTNV-1" vertex="1">
          <mxGeometry x="10" y="216" width="120" height="60" as="geometry" />
        </mxCell>
        <mxCell id="T_ZoQTTc3kzyoSvQndt8-4" value="Align&lt;div&gt;minimap2&lt;/div&gt;" style="rounded=1;whiteSpace=wrap;html=1;fillColor=none;" parent="WIyWlLk6GJQsqaUBKTNV-1" vertex="1">
          <mxGeometry x="350" y="216" width="120" height="60" as="geometry" />
        </mxCell>
        <mxCell id="T_ZoQTTc3kzyoSvQndt8-8" value="" style="edgeStyle=orthogonalEdgeStyle;orthogonalLoop=1;jettySize=auto;html=1;" parent="WIyWlLk6GJQsqaUBKTNV-1" source="T_ZoQTTc3kzyoSvQndt8-5" target="T_ZoQTTc3kzyoSvQndt8-7" edge="1">
          <mxGeometry relative="1" as="geometry" />
        </mxCell>
        <mxCell id="T_ZoQTTc3kzyoSvQndt8-5" value="CNV/SV&lt;div&gt;Sniffles2&lt;/div&gt;" style="rounded=1;whiteSpace=wrap;html=1;fillColor=none;" parent="WIyWlLk6GJQsqaUBKTNV-1" vertex="1">
          <mxGeometry x="520" y="216" width="120" height="60" as="geometry" />
        </mxCell>
        <mxCell id="T_ZoQTTc3kzyoSvQndt8-7" value="Methylation&lt;div&gt;Nanopolish&lt;/div&gt;" style="whiteSpace=wrap;html=1;fillColor=none;rounded=1;" parent="WIyWlLk6GJQsqaUBKTNV-1" vertex="1">
          <mxGeometry x="680" y="216" width="120" height="60" as="geometry" />
        </mxCell>
        <mxCell id="T_ZoQTTc3kzyoSvQndt8-13" value="" style="edgeStyle=orthogonalEdgeStyle;orthogonalLoop=1;jettySize=auto;html=1;" parent="WIyWlLk6GJQsqaUBKTNV-1" edge="1">
          <mxGeometry relative="1" as="geometry">
            <mxPoint x="300" y="246" as="sourcePoint" />
            <mxPoint x="340" y="246" as="targetPoint" />
          </mxGeometry>
        </mxCell>
        <mxCell id="T_ZoQTTc3kzyoSvQndt8-15" value="" style="edgeStyle=orthogonalEdgeStyle;orthogonalLoop=1;jettySize=auto;html=1;" parent="WIyWlLk6GJQsqaUBKTNV-1" edge="1">
          <mxGeometry relative="1" as="geometry">
            <mxPoint x="474" y="246" as="sourcePoint" />
            <mxPoint x="514" y="246" as="targetPoint" />
          </mxGeometry>
        </mxCell>
        <mxCell id="uzs9F12Ixemkh-am3qnI-1" value="fastqc" style="rounded=1;whiteSpace=wrap;html=1;fillColor=none;" vertex="1" parent="WIyWlLk6GJQsqaUBKTNV-1">
          <mxGeometry x="180" y="216" width="120" height="60" as="geometry" />
        </mxCell>
      </root>
    </mxGraphModel>
  </diagram>
</mxfile>
